<?xml version="1.0" encoding="UTF-8"?>
<svg enable-background="new 0 0 2500 2500" version="1.1" viewBox="0 0 2500 2500" xml:space="preserve" xmlns="http://www.w3.org/2000/svg">
<style type="text/css">
	.st0{fill:none;}
	.st1{fill:#988430;}
	.st2{fill:#7A6A2A;}
	.st3{fill:#BA9F33;}
	.st4{fill:#CFB66C;}
	.st5{fill:#E2CC85;}
	.st6{fill:#F1D789;}
	.st7{fill:#F4ECB4;}
	.st8{fill:#F3E19D;}
	.st9{fill:#F2E8B0;}
	.st10{fill:#F5EEC0;}
	.st11{fill:#E6DB9D;}
	.st12{fill:#E5CB7A;}
	.st13{fill:#D8C173;}
	.st14{fill:#E0CD81;}
	.st15{fill:#DFC57C;}
	.st16{fill:#E5CC7C;}
	.st17{fill:#D2C281;}
	.st18{fill:#E2C270;}
	.st19{fill:#CCB360;}
	.st20{fill:#D5B457;}
	.st21{fill:#D2B257;}
	.st22{fill:#D2B159;}
	.st23{fill:#C2A44D;}
	.st24{fill:#CAA13E;}
	.st25{fill:#B59544;}
	.st26{fill:#C89D3A;}
	.st27{fill:#CEB052;}
	.st28{fill:#CCA847;}
	.st29{fill:#C39D3C;}
	.st30{fill:#D2BA6B;}
	.st31{fill:#C0993A;}
	.st32{fill:#A88F33;}
	.st33{fill:#E3C571;}
	.st34{fill:#D8B65B;}
	.st35{fill:#D3AE4D;}
	.st36{fill:#F4EFC8;}
	.st37{fill:#EBCC73;}
	.st38{fill:#E5C66B;}
	.st39{fill:#E6BD62;}
	.st40{fill:#B6933F;}
	.st41{fill:#C49937;}
	.st42{fill:#DFC068;}
	.st43{fill:#C99E3D;}
	.st44{fill:#B58634;}
	.st45{fill:#E6C367;}
	.st46{fill:#DCBA5A;}
	.st47{fill:#E9CE77;}
	.st48{fill:#CDAE50;}
	.st49{fill:#D2A83E;}
	.st50{fill:#C29637;}
	.st51{fill:#AC8132;}
	.st52{fill:#A67A2E;}
	.st53{fill:#8C6228;}
	.st54{fill:#CBA94C;}
	.st55{fill:#BE9C44;}
	.st56{fill:#A17C34;}
	.st57{fill:#92723A;}
	.st58{fill:#B18E3E;}
	.st59{fill:#543E26;}
	.st60{fill:#806031;}
	.st61{fill:#B6903C;}
	.st62{fill:#685026;}
	.st63{fill:#D4B968;}
	.st64{fill:#CCA849;}
	.st65{fill:#585136;}
	.st66{fill:#252211;}
	.st67{fill:#C3B378;}
	.st68{fill:#E6D89C;}
	.st69{fill:#6F674D;}
	.st70{fill:#AC924C;}
	.st71{fill:#9F8E57;}
	.st72{fill:#EAC970;}
	.st73{fill:#D7BC6B;}
	.st74{fill:#453A25;}
	.st75{fill:#84754B;}
	.st76{fill:#F7F7E7;}
	.st77{fill:#F8F6DE;}
	.st78{fill:#D4C38B;}
	.st79{fill:#E2D59D;}
	.st80{fill:#CBAC5A;}
	.st81{fill:#D6BC6F;}
	.st82{fill:#DFC677;}
	.st83{fill:#C4A859;}
	.st84{fill:#927D49;}
	.st85{fill:#6E6342;}
	.st86{fill:#39331F;}
	.st87{fill:#292311;}
	.st88{fill:#3F3824;}
	.st89{fill:#2D2815;}
	.st90{fill:#82764F;}
	.st91{fill:#2D2816;}
	.st92{fill:#574F35;}
	.st93{fill:#DEC270;}
	.st94{fill:#CBAF59;}
	.st95{fill:#E3C677;}
	.st96{fill:#ECD592;}
</style>

	<rect class="st0" width="2500" height="2500"/>
	<circle class="st1" cx="1250" cy="1250" r="1250"/>
	<circle class="st2" cx="1250" cy="1250" r="1210"/>
	<circle class="st3" cx="1250" cy="1250" r="1184.5"/>
	<path class="st4" d="m546.5 1116.5c-7.1-6.5-14.6-12.9-21.4-19.4-6.9-6.5-14-12.9-21-19.4l-21-20c-3.4-3.4-7.1-6.5-10.5-9.9-3.4-3-7.5-6.5-10.9-9.5-27.9-26.5-56-53-83.5-79.5 28.5 26.1 56.4 52 85 78.5l9.9 9.9c3.4 3.4 7.1 6.5 10.5 9.9l21 19.4c7.1 6.5 14 12.9 21 20s13.8 13.5 20.9 20zm-370.5-4s101.5 10.5 151.1 17.6c45.9 6.5 189.5 28.5 189.5 28.5l-340.6-46.1zm0 0c28.5 2.4 57 5.4 85.6 8.5 14.6 1.4 28.5 3 42.5 4.4l21.4 2.4c7.1 1 14 2 21 3l85 13.5 42.5 7.1c14 2.4 27.9 5.1 42.5 7.5-14-1.4-28.5-3.4-42.5-5.5l-42.5-6.1-85-12.5c-7.1-1-14-2.4-21-3.4l-21.4-2.5c-14-1.4-28.5-3.4-42.5-5.1-28.6-3.2-57.1-6.9-85.6-11.3zm330.5 72.6s-108.4 27.5-145 38c-36 9.9-145 43.1-145 43.1l290-81.1z"/>
	<path class="st4" d="m506.5 1185.1c-24.1 7.1-48 14-72.4 20.4l-72.4 19.4c-24.1 7.1-48 14-72 21l-36 9.9c-11.9 3.4-24.1 6.5-36.4 9.9 11.9-4 24.1-8.1 36-11.5l36-11.5c24.1-7.5 48-14.6 72-22.1 24.5-6.1 48.6-12.6 73-18.4 23.2-5.8 47.7-11.7 72.2-17.1zm-274.9 147.8c11.9-4.4 149.5-68.6 181.4-83.5 16-7.5 62.5-24 62.5-24l-243.9 107.5z"/>
	<path class="st4" d="m231.6 1332.9c10.5-4 20.4-8.9 30.5-13.5l29.9-14 60.1-28.9c20-9.5 39.4-20 60.1-28.9 10.5-4.4 21-8.1 31.6-11.5l16-5.1c5.5-1.4 10.5-3 16-4.4-20 9.5-41.1 17.6-61.1 26.9-20 9.9-40.4 18-61.1 26.9l-61.1 26.9c-20.5 8.3-40.5 17.1-60.9 25.6zm13.3 56s124.6-73 167.5-96.5c22.5-12.5 95.1-48.5 95.1-48.5l-262.6 145z"/>
	<path class="st4" d="m244.9 1389c21-12.9 42.5-26.1 63.9-39.4l32-19.4c10.9-6.5 21.4-12.5 32.6-19 10.9-6.5 21.4-12.9 32.6-19 5.3-3.3 10.9-6.1 16.6-8.5l17-8.5c22.5-10.9 44.9-22.1 68.6-31.6-21.4 13.6-43.5 25.1-65.5 37-10.9 6.1-22.1 11.5-33 17.6s-21.4 12.6-32.6 18.4c-10.9 6.5-21.4 12.5-32.6 18.4l-33 18-66.6 36zm422.6-226s-77.5 59.5-102.6 78.5-98.9 72.4-98.9 72.4l40.4-54 161.1-96.9z"/>
	<polygon class="st5" points="951.1 1739.5 911.4 1664.4 934.5 1570.6 1098.9 1507.1 1028.9 1363.5 1063.5 1218.4 1128.4 1088.6 1329.1 1057 1476.5 916.5 1794.9 940.5 1857.4 1280.9 1737.1 1709.6 1668.5 1931.4 1390.6 1942 1261.5 1852.6 1110.4 1789.4"/>
	<path class="st6" d="m1438.5 1737.1s-38.4 17.6-104 13.6c-19-25.5-151.9-37.4-151.9-37.4s-16.6-5.1-45.9 7.1c-29.5 12-57.4 10.5-83.5 17s-52-27.5-72-34.6c-20-7.5-46.5-25.5-46.5-25.5l-56-5.5-112.4-47.5-178.7-178-48.5 76-15 94.1 54 111.5 145.4 132.5 283.6 72 168.1-49.5 210.6-89 52.7-56.8z"/>
	<polygon class="st7" points="431 1108 467 999 509.9 928.6 648.1 917.1 606.6 1038 491.1 1243.5 539 1427 454.1 1469.4 428 1429.4 407 1337.6 405.6 1234.4"/>
	<path class="st8" d="m586 1729.6-26.5-37s-7.1-17.6-3-33c4-15.6 3.4-16.6 1.4-22.5s-19-26.1-18-43.5c1-17.6-1.4-23.5 11.5-37.4 13.5-13.6 9.5-37 9.5-37l17.6 10.9 4-6.1s6.5 5.1 6.5 12.9c1.4-10.9-4.5-61.5 8.9-73s37 54 37 54l-14.5-95.1-37.4-97.5-66.5-89-4-98.1v-8.5s-30.6 46.9-39 84c-6.1 25.5 8.5 56.4 5.5 93-2.4 36.4-5.5 33.6 3.4 48s30.5 44.1 22.1 65.5c-7.5 18.4-33 5.5-33 5.5s-5.1 15-11.9 20.4c-2.4-8.9-5.1-14.6-9.9-20-0.4 3.4-1.4 8.1-1.4 8.1s-4.4-14-8.9-31.6c-6-23.5-12.5-54.4-18.4-71-2.4 9.5-8.5 38.4-8.5 38.4l3.4 44.5 16.6 61.1 16 40 15.6 48.9 13.5 32.9 10.9 25.1 9.5 56.4 45.9 48.5 24.5 10.9 17.6-8.7z"/>
	<path class="st9" d="m455.1 1019s-33 56-42.5 112.5c-9.5 56.4-18 116.1-12 193 6.1 77.5 17.6 125 26.9 159 16 56.4 57.4 134.9 57.4 134.9l1.4-3c-7-13.2-12.6-27.1-16.6-41.5-5.5-21.4-7.5-46.9-12.6-58.4-4.4-11.5-11.9-21.4-15.6-35.6-3.4-13.5-4-35-14.6-51-4.4-6.5-9.9-23.5-11.5-40.4-2-25.5 1-54-1.4-77.5-4.5-39-7.5-65.5-3.4-86s25.1-78.5 38-124.6c8.5-29.5 3.4-54.4 19-80.1 15.6-25.5 25.1-47.9 28.5-63.5 4.2-14.2-41.1 62.2-41 62.2z"/>
	<path class="st10" d="m611.4 996.6s-17 5.1-25.1 14c-8.1 8.5-11.5 15.6-22.5 29.9-10.9 14.4-11.5 26.1-20.4 44.1-8.9 17.6-28.5 44.1-30.9 53.6s-6.5 54-11.5 75c-4.5 21 5.1 46.9 5.1 46.9l11.5-2.4s0 15 11.5 25.1c11.5 9.9 13.5-33.6 13.5-33.6l43.1-145.4 64.9-44.1 7.1-35.6-46.3-27.5z"/>
	<path class="st11" d="m643 1062.5s-30.6 2-45.5 12.9c-6.1 4.4-8.5 8.1-15 13.6-11.9 9.9-24.1 19-29.9 32-6.5 12.9-13.6 32.6-18.4 69.6-2 15.6-2 29.9-3.4 42.5-2 17-5.1 30.5-3.4 40 2 19.4 22.1 29.5 24 51.6l41.5-21 39-153.9 82.9-52-46.9-52.6-24.9 17.3z"/>
	<path class="st12" d="m424.2 2099.1c0.2-1.5 0.3-3 0.5-4.6 6-52 7.1-91.4 11.5-116.1 6.5-35 10.9-48 9.9-61.1-1.4-21-3-36.4-1-52.6 3-21.4 24.1-46.9 23.5-64.5-0.4-14-7.5-23.1-13.6-31.6s-10.9-15.6-10.9-15.6 41.5-28.5 41.1-143.4c0.8 0.2 1.7 0.6 2.4 1l20.4 58 14 17 53.6 99.9 69 67 101.9 68.6 63.9 69.6 6.5 185.5-83.5 108.4-13.7 24.8c-108.5-54.5-208.4-125.6-295.5-210.3z"/>
	<path class="st13" d="m679.4 2276.5s1.4-23.1 20.4-38c3 5.1 5 9.9 4.5 13.5 3.4-6.1 27.5-44.9 81.9-55 54.4-9.9 67.6-49.6 67.6-49.6l115.5-105 132.1-121.6 160.6-56.4 75.1-18.4s1.4 5.5-1.4 17.6c14-1 44.9-8.1 77.1-19.4 12.9-5.1 25.1-7.1 31.6-0.4 9.5 8.9 10.9 29.9 11.5 42.5 15.6-3.4 33.6-18.4 48-17 23.1 2.4 43.5 29.5 67 29.5 30.9 0 44.9-19 66.5-34 12.9-8.9 31.6-20 42.1-27.5 25.1-18.4 290.5-99.5 290.5-99.5l93 6.1 15 99.9-8 261.2c-1 0.9-2 1.9-3 2.9l-423 220.9-586.4 89.9c-131.1-21.4-258.3-65.2-375-128.9l-3.2-13.3z"/>
	<path class="st6" d="m459.8 2132.3c8.3-17.4 15.8-32 17.1-37.2 1 10.5 2.9 33.6 6.8 58.1-8-6.9-16-13.9-23.9-20.9z"/>
	<path class="st14" d="m888.2 2378.1 75.8-21.1 6.5 2s3.4 2 3.4 8.9c9.5-5.4 17.6-4.4 23.5-8.1 3 6.5 6.1 27.9 19.4 30.5 13.9 3 28.9-6.1 44.1-17.6 15-11.9 32-26.9 44.9-33 4.7 8.7 8.9 17.7 12.6 26.9 17-13.5 46.5-68.6 88.6-67.6 12.1-28.7 32.5-53.3 58.4-70.6 39-26.5 63.5-28.5 94.1-26.1 12.1-15.7 27.1-29.1 44.1-39.4 5.1 2 19 10.5 36.4 2.4 17.6-8.1 37.4-39.4 63.5-43.5 2.8-0.4 5.6-0.6 8.4-0.6 11.3 0 22.4 3.1 32.1 9.1 9.7 5.9 76-75.5 128.4-100.5-2-6.1-6.1-28.9 55.4-79.5 3.4 3 1 11.5 3.4 12 1 0 16-6.5 35-21 23.5-17.6 51.6-36 68.6-41.1 32-9.5 65.9 9.9 65.9 9.9 2.9-2 6.1-3.5 9.5-4.5 8.1-1.4 13.9-2.4 18.4-4-0.4 10.5 5.5 28.5 0 44.1 6.3 3.6 13.1 6.4 20 8.5-3.4 7.5-10.9 26.5-23.5 35.6 10.5 5.1 11.9 10.9 26.9 16-6.1 8.5-16 23.1-20.4 32-4.5 9.5-20.4 48.9-27.5 63.9-7.5 15-17.6 42.5-22.5 48s-22.4 28.9-36 40.4c12-4.4 61.1-19.4 81.9-25.1-6.2 9.1-37.6 55.7-67.8 100.6-184.3 110.5-395.3 168.9-610.2 168.9-122.6 0-244.7-19.1-361.4-56.4h0.1z"/>
	<path class="st15" d="m648 1057s-17.6 0-21 2.4 17.6 7.5 24.1 9.9 20.4 13.5 24.1 22.4c3.4 8.5 126.4 58 126.4 58l87-4.4 30-41.4-57-50 40-117.9-53 8.5-127.4 76-63.9 24.5-9.3 12z"/>
	<path class="st16" d="m839 1096.1c2.5 4 6.9 6.5 11.6 6.5h0.4c18 0 34.6 4.4 41.4 13.6 11.5 14.6 43.5 61.1 43.5 61.1l76.5 27.5 4.9-90-83.5-58-95.1 35v4.5l0.3-0.2z"/>
	<path class="st17" d="m824 1129.4s13.9 1 31.6-5.5c17.6-6.5 46.5-20.4 59.1-15 17.6 7.5 14 30.9 33 52 11.5 12.9 32.6 12.5 44.5 26.5s53 7.5 53 7.5l15.6 84-62.5 80.1-20.4 99.5h-84.5l-77.4-30.5-38-92 19-93 27-113.6z"/>
	<path class="st18" d="m987.5 1133.5c2.1 0.7 4.3 1 6.5 1-2.4 2-7.5 6.5-5.5 18s8.5 26.1 3 35c4.3 4.8 7.6 10.4 9.5 16.6 3.4 9.9 4.4 19 26.9 20.4-3.2 2-6.2 4.4-8.9 7.1s15.6 13.6 23.5 26.1c8.1-0.3 29.5-7 29.5-7l4.4 3 9.5-4s-8.9-3.4-2.4-25.1c6.1-19 11.5-18 12-19.4s4.4-21.4 4.4-29.5c3-10.5 5.5-42.5 5.5-42.5l-6.5-70.6-36.4-22.1-29.5-28.5-27.9 52.6-18.4 18.3-1.4 45.5 2.2 5.1z"/>
	<path class="st19" d="m1075 1074.4s6.5 18.4 8.9 32.6c0.8-2.8 1.3-5.6 1.4-8.5s5.1 27.9 6.1 39.4c2-0.4 4-1 4.5 1 0.4 2 5.1 24.5 4 37 8.4-13.9 20.1-25.6 34-34 8.1-5.1 17.6-10.5 27.5-10.9 15.6-0.4 26.9 9.9 45.5 9.9 44.9 0 85.6-33 115.5-43.1 22-7.5 41.1-12.9 54.4-25.1 6.5-5.4 18-17.6 28.5-35.6 14-24 28.5-44.9 43.1-47.5-5.4 1-10.9 1.5-16.3 1.5-1.2 0-2.5 0-3.7-0.1-1.2 0 4.4-4.5 12-10.5 7.6-6.1 16.6-13.5 29.5-13.5 23.1 0 34.6 3.4 47.5 3.4 12.9-0.4 20.4-3.4 20.4-3.4s13.6 9.5 44.1 9.5c30.6 0.4 51 3 67 4.5 16 1.4 69.6-4.5 84.9-4 10 0.4 19.9 2.8 28.9 7.1l-49.6-144-178-155.6-106 75-163 163-157.7 58.5-33 37v56.4h-0.4z"/>
	<path class="st20" d="m1429 991.9s4.5-4.4 11.9-10.5c7.5-6.1 16.6-13.6 29.5-13.6 23 0 34.6 3.4 47.5 3.4 13-0.4 20.4-3.4 20.4-3.4s13.6 9.5 44.1 9.5c30.6 0.4 51 3 67 4.4s69.6-4.4 85-4c10 0.4 19.9 2.8 28.9 7.1l-22.4-64.9-26.1-49.5-74.4-81.5s-89.3-52.6-90-53c-0.4-0.4-30.9-8.5-30.9-8.5l-80.9 49-73.4 189.9-1.4 40 47.5 22.5c11.9-20 25.1-36 37.4-38-11.2 1.1-19.7 1.1-19.7 1.1z"/>
	<path class="st21" d="m1428 1005.5c-7.1 0.4-12.9-1-14.6-6.1-6.1-17-10.9-19.4-16-19.4s-11.9 10.9-16 11.9-8.9-12.5-8.9-12.5l-4.5-2s-26.1 17-44.5 37-48.6 54-62.1 60.1c-13.6 6.1-60.1 8.1-76 11.5s-33.6 15-36 17.6 7.1 5.4 8.5 8.1c1.4 2.4-15.6 1.4-17 4-1 2 4 13.6 6.5 19.4 4.3-2.2 9.1-3.3 13.9-3.4 15.6-0.4 26.9 9.9 45.5 9.9 44.9 0 85.6-33 115.5-43.1 22.1-7.5 41.1-12.9 54.4-25.1 6.5-5.4 18-17.6 28.5-35.6 7.9-12.4 15.4-23.9 22.8-32.3z"/>
	<path class="st22" d="m784 2006.5s-4-15-41.1-53.6c-10.5-10.9-17-20-24.1-26.5-17.6-16.6-27.9-21-40.5-30.6-27.5-20.4-57.4-20.4-80.5-45.5-23-25.1-49.9-73-68.6-122-18.4-48.9-23.5-64.5-23.5-65.9s5.1-10.9 11.5-9.5 6.5 13.9 8.1 17c3.2 4.9 6.9 9.6 10.9 13.9 9.5 10.9 23.1 24 29.9 43.5-1.4-16.6-7.1-35-7.1-35s35.6 22.4 65.9 45.9c30.6 23.5 43.1 31.6 52 46.5s29.9 54.4 40 65.9 148 55 148 55l65.6 48.9 32.6 71.4-25.5 40-48.9 10.5-79.5-35.6-25.2-34.3z"/>
	<path class="st23" d="m607.4 1760.5s16.6 26.5 57 51.6c36.4 22.1 94.1 42.1 145.4 54 29.5 7.1 59 12.5 85.5 12.9 71.4 1 120.5-19.4 181.4-26.1 33-3.4 73.4-6.1 115.5-16 54-12.9 86-27.5 129.5-48 31.5-14.6 60.5-25.5 83.9-39.4 33-19.4 57-41.1 85-47.5-3.4 9.5-7.1 26.5-34.6 44.1 14.6-0.4 34.6-1.4 34.6-1.4s-19.4 11.5-53.6 37.4c-21 16-48.9 43.1-77.5 61.1-18.4 11.5-38.4 20-51.6 26.9-32 17.6-44.9 26.5-65.9 48 7.5-0.4 8.1 0 8.1 0s-26.5 3.4-45.5 13.6c-4 0-10.9-1.4-23.1 2-9.5 3-22.1 9.9-35 13.6-18.4 5.5-24.5 3-24.5 3l3 6.1s-24-0.4-32 0.4c1.4 0.4 1 1 1 1-1.4 0.2-2.8 0.7-4 1.4-3.8 2.5-8.1 4.3-12.5 5.5-2.4 0.4-4.4 0.4-7.5 1 1 2.4 8.9 16 12.6 24-3 2-48.6 36.4-48.6 36.4 1.4 2.2 2.6 4.6 3.4 7.1 1.4 4.4 2 10.9 3.4 13.9 3.4 6.1 5.4 7.1 5.4 7.1s-5.4 1-15 3.4c-8.1 2-18 5.4-32 7.5-4.3 0.6-8.7 0.9-13 1 2 4.4 10.9 21.4-5.5 41.1-16.4 19.6-21.4 22.5-26.5 35-2.5-1.9-5.3-3.6-8.1-5.1-5.5-2.4-12.9-6.1-15.6-10.9-1.5 6.5-3.6 12.9-6.1 19-5.1 13.6-12.5 26.9-13.9 37-5.5-6.1-15.6-18-29.5-15.6s-25.1 21.4-27.5 26.9c0-3.4-2.4-6.1-3-2-0.4 4.4-8.1 51-51 88.6-0.4-9.5-0.4-30.6-1.4-37.4-4 4-8.9 9.9-38 22.5-28.5 12.5-24 25.1-24 25.1s-2.4-20 12.9-41.1c15.6-21 25.1-30.9 25.1-32.6-0.3-1.6-1-3.2-2-4.5-2-2-6.1-4.4-6.1-6.1 2.4-1 26.5-12.5 25.1-36.4-1.4-21.4-10.5-32.6-17-40.4-1-1 9.5-8.5 8.1-10.9-1-1.4-13.9-10.9-15.6-16 0.4-3 1.1-6 2-8.9 1.4-4.5 2.4-7.5 2-10.5-1-5.1-6.5-19-8.1-20.4 1.4 0.4 11.5 0 11.5 0s-8.1-12.9-9.5-19-4.5-22.1-6.1-25.1c3.4 0.4 11.9 1 11.9 0 0.4-3-7.5-8.1-4-12 2.4 0.4 7.1 2.4 11.5 8.1-2.4-6.5-6.5-19-15-24.1 4-1.4 17.6-5.1 29.5 2s16 17 16 17 7.1 5.5 18 13.6c12.5 9.9 28.5 24 54 34 5.5 3 19.4 3 29.5 1 4.4-1.1 8.6-2.8 12.5-5.1 1.4-0.8 2.9-1.5 4.5-2-2.2-4.3-4.7-8.6-7.5-12.6 3.4 0 7.5 0.4 7.5 0.4s2.4-5.5-8.5-16c2.4-2.4 5.5-4 5.5-8.1-3.4-0.4-9.5-5.5-10.9-7.5 2-1.4 5-6.1 8.5-7.5-3-2.4-10.5-12.6-14-13.6 3.3-1.2 6.5-2.7 9.5-4.4s-17-4.4-22.5-8.1c-5.5-4-13.5-10.9-18.4-12.9-5.1-2-14-3-17.6-7.1 3.4 1 8.9 0 13 0 3 0 4.5 0.4 5.5 0.4-0.4-1.4-0.4-4.4 7.5-5.4 3.8-0.6 7.5-1.7 10.9-3.4s-7.5-0.4-16-8.5-15.6-14.6-20.4-15.6c-5.1-1-14.6 3.4-20.4 3-8.1-1-11.5-5.1-11.5-5.1s-26.9 2.4-86.6-34c-51.6-31.6-74-59.5-74-59.5-4.8-1.7-9.5-3.9-13.9-6.5-19.4-10.1-46.3-31.1-45.5-58.7l0.4 0.3z"/>
	<path class="st24" d="m1351.5 546.5c4.7 1.5 8.8 4.3 12 8.1 9.5 10.9 15.6 31.5-6.1 53.6 8.5 3 12 4 19.4 3-7.5 8.9-24.5 27.9-25.5 44.5-1 13.5 7.5 17.6 7.5 17.6s-12.9 15-13.5 40c6.1-6.9 12.8-13.3 20-19 15-11.9 35.6-25.5 49.6-34v1.5c0 3 0.5 6.1 1.5 9s26.1-21.4 48-11.9c9.9 4.5 5.4 18.4 5.4 18.4s13.6-5 23.1 4.5 22.9 34 29.8 43.5c3 4.5 10.9 13 19 26.1 11 18.4 20.3 37.9 27.5 58 0.4-10.5 3-26.9 33-16.6 29.9 10.5 63.9 32.6 92.4 76s35.6 92.4 49.9 111.1c14.6 18 29.5 47.9 30.6 60.5 1 12.6-4.4 53 25.5 162.4 8.5-34 21.4-109.4 21.4-109.4l7.1-66.6 8.1-205.9-215-178.6-168.1-122-109.4 10.5 6.8 15.7z"/>
	<path class="st25" d="m1751 853s-3-20-53.6-54c-50.6-33.6-90-33.6-126.4-62.1-27.9-22.5-57-74-76-91-18.4-16.8-21.4-65.3-21.4-65.3l62.1-52 92.3-133.6 78.1-86 37.4 52 52 61.1 28.9 122.6 10.5 179.4-83.9 128.9z"/>
	<path class="st26" d="m1813.5 1068c0.2-4.2 0.4-8.5 0.4-12.8 0-22.9-3.5-45.8-10.3-67.7-13.3-41.5-42.5-115.1-56-142.7-5.5-30.5-1.4-33 4.5-36.4s27.9-16 40-60.1 49.6-45.5 49.6-45.5l23.1-17 35 87.6 30.5 79.1 9.5 60.5 7.1 51.6-16.6 109-81.9 74-34.9-79.6z"/>
	<path class="st27" d="m670.5 2283.2v-2.2c1.7-1.1 3.2-2.4 4.4-4 1.4-2 2.4-4.5 3.4-5.1 2-1 11.5-4 16.6-3s18.4 6.5 25.5 6.1c14.6-0.4 31.6-11.5 58.5-6.5 40.5 7.5 50 35 73.4 50.6 16 10.9 32.6 6.1 35 6.1h5.4c1 0 8.5-8.5 12.6-8.1 8.1 0.4 8.9 7.1 13.9 7.5 11.9 1.4 35-6.1 46.5-3 6.9 2.2 12.4 7.6 14.6 14.6 2.4 7.5 0.4 17-5.5 22.4-12.5 11.5-24.5 22.4-26.9 32 3.1 2.3 6.1 4.9 8.9 7.5-99.9-25.5-196.5-64.2-286.3-114.6v-0.3z"/>
	<path class="st28" d="m1747.6 1879.1s31.6-42.1 42.5-62.9c10.9-21.5-34.6-293.5-34.6-293.5l91.4-299.5-2.4-97.5s4.5-90 15-129.1c12.5 22.5 51.6 49.6 60.1 63.9 4-27.5 17.6-85.6 15.6-147.5 7.5 11.5 25.5 127.4 25.5 127.4l18 78.1 23.5 82.9 26.1 87.6 15.6 60.5 8.9 14.6 7.5 25.5 7.1 27.5 20.4 64.5 12 53 9.5 96.1c2.1 7.4 3.6 14.9 4.4 22.4 0.4 10.5-1.4 16.6-1.4 18.4s3.4 23.1 2 39c-2 16-2 28.5-14.6 40s-20.4 80.1-20.4 80.1l-22.4-15s4.4-20.4-6.1-39-30.9-22.5-42.5-19.4c-11.5 2.4-34.6 6.1-42.1 12.5-7.1 6.5-24.5 26.5-40.5 35.6-20 12-52.6 12.9-70 17-17.6 4-37 16-57.4 29.9-16 10.3-32.9 19.3-50.5 26.7l-0.2 0.2z"/>
	<path class="st29" d="m1747.6 2321s1.3 0.9 3.9 2.3c143.6-67.3 272.5-162.9 378.7-280.7-1.2-40.9-2.7-82.9-4.3-98.4-3.4-33-1-66.6-2-86s-11.9-98.5-17-118.9c-5.5-20.4-16-30.6-17.6-30.6-1.4 0.4-9.9 38.4-9.9 48s-2 32.6-2 38.4c-1.4-0.4-2-4-2-5.5-2 5.1-4.5 14-5.5 15s1.4-8.5 0-10.5-4-1-3.4-6.1c0.2-3 0.7-5.9 1.4-8.9s-6.1 8.9-10.5 31.6c-4.5 22.4-4.5 23.1-6.1 25.1-1.4 2.4-9.5 10.5-9.9 13.6-0.4 5.4 7.5 10.9 8.1 13.9 0.4 5.1-7.1 28.5-9.5 40s-1.4 34-4 45.5c-2 10.5-4 16.6-10.9 21 5 1 9.9 2.4 9.9 2.4s7.1 29.9-10.9 55.4c-6.5 8.9-8.1 12.9-15 21-13.6 15-24.1 32-25.1 43.1-0.7-3.3-1.2-6.6-1.4-9.9s-21 24.5-29.9 38.4c-11.5 18-27.5 17-32 21.4s-5.5 12.5-4 19c-4 1-11.5 2.4-16.6 18-2.4 8.1-8.5 16-18 21.4s-21 7.1-26.9 8.5c5.1 1.4 7.1 1.4 9.5 3-3 5.1-17 12.9-32.6 23.1-15.6 9.5-23.1 23.4-26.9 32.6-4 8.5-9.9 14-19.4 15 4 2.4 9.9 8.1 12.9 9.9-4.4 1-12 1-25.5 12.6-14.2 11.9-19.1 15.3-25.6 16.3z"/>
	<path class="st30" d="m1466.1 2414.7c7.8-5.4 16.2-9.9 25-13.2 31.6-12.5 64.9-15 78.1-19 12.5-4 22.4-9.5 38-12.6-0.4 3.6-0.8 6.9-1.1 10-45.9 14.5-92.8 26.3-140 34.8z"/>
	<path class="st31" d="m2048 1585s-6.5 35-18 57-24 52.6-24 52.6c0.1-6.9 0.9-13.8 2.4-20.4-14.6 8.5-50 28.9-60 38-9.5 8.5-25.5 23.5-29.5 30.5 9.5-27.9 19.4-53 21-64.5-14.6 10.5-82.5 66.6-117.9 103.6l-110.2 89.2c-12.7 6.8-25.9 13-39.2 18.4-19 8.1-41.4 15-58 21.4 4.5-11.9 11.5-22.5 21.4-32.6 10.5-9.9 42.1-44.1 46.9-60 4.5-16.6 5.5-26.5-0.4-40.4-5.5 1.4-18 2-26.5 4.4s-17.6 11.5-17.6 11.5 6.5-37 20.4-72c-10.5 0.4-28.5 3.4-28.5 3.4s25.1-42.1 68-71.4c-13.1 2.8-26.1 6.8-38.4 11.9-25.1 10.5-52.6 26.1-73 34.6 11.5-16 92.4-131.5 140.6-239.1 48-107.4 65.9-134.9 76.4-192.6 5.5-28.5 4-70.7 5.5-108.4 1.4-37.4 6.1-71 3-93.5 12.5 15.6 59.5 59.5 61.1 157.6 1.4 98.1-44.9 230.6-94.1 302 12 3.4 43.1 7.5 75-48s31.6-71 43.1-94.1c1.4 11.5 1 15.6 1 15.6s46.5-56.4 68.6-127.4c4.4 30.6 17.6 57.5-3 113.5-18.4 50.6-42.5 62.9-42.5 62.9s11.9-2 29.5-12.6c3 7.5 2.4 16 7.5 19s11.9 8.1 12.9 12.9c5.4-8.1 13.9-18.4 16.6-26.1-2 16-3.4 86 4 121.6 15.6-1.4 31.6-2.4 42.5-30.6-7.5 27.5-7.5 44.1-2.4 67.6 8.3-5.5 15.7-15.6 15.8-15.5z"/>
	<path class="st32" d="m1522.4 470.1s-15.6 6.5-42.1 6.5c-23.1 0-16.6-8.9-52.6-8.9-55.4 0-249 32-283 31.5-22.1-0.4 74.4 9.5 74.4 9.5l246.6 3.4 49.5-4 18.4-37.5-11.2-0.5z"/>
	<path class="st33" d="m883.1 952.1s-31.6 24.1-44.9 42.5-20.4 30.5-35.6 45.5h1.2c3.2 0 6.3-0.5 9.3-1.4s0 4-2.4 5.1c0.5-0.1 1-0.1 1.6-0.1 3.7 0 7.3 1.5 10 4.1-4.5 2.4-16.6 14.6-7.1 28.9 7.1 10.9 22.1 11.9 22.1 11.9s-3.5 9.9 10.9 8.9c30.9-1.4 65.5-15 81.5-11.5 16 4 25.1 5.5 36.4 25.1 12 19.4 22.4 22.5 22.4 22.5s7.1-18 5.5-44.9c5.8-14.5 9-29.9 9.5-45.5l-10.5-77.5-45.9-58-59.5 33-4.5 11.4z"/>
	<path class="st34" d="m939.5 940.5s4.4 10.5 23.1 11.5c-2 4.5-2 5.1-1.4 8.5l1 8.5c2-1 3.9-2.3 5.5-4 1 4.5-1 11.5 0 16.6 0.6 3.1 1.7 6.1 3 8.9 0.3-0.7 0.6-1.4 1-2 0.4-1 4 10.9 14 20 0-1.4 0.3-2.7 1-4 0.1 2.5 1 5 2.4 7.1-0.8-0.4-1.4-0.8-2-1.4s1 32 6.5 48.5c0.9-1.1 1.7-2.2 2.4-3.4 0-1-0.4 8.9-1.4 16-1.4 7.1-0.4 17-0.4 17 3.6-2.9 7.7-5.3 11.9-7.1 6.1-2.4 16-9.9 22-26.5 3.5-9.4 6.2-19.1 8.1-28.9 1.9 3.8 3.3 7.8 4 12 0.4 5.1 9.9 2.4 9.9 2.4l2-22.1 12-50 10.9-30.9 52.6-81.9 95-73.2 82.9 19 70-95.1-120.5-72.3-114 11.9-103.6 143.4-82.9 130.1-15 21.4z"/>
	<path class="st35" d="m1537 733s-7.1 1.4-27.5 12-34.6 14-42.5 29.5c-7.9 15.6-8.5 27.9-8.5 27.9s14-6.1 22.1-8.1c8.5-2 18-1.4 17 2-1 2.3-2.3 4.5-4 6.5-1.7 1.9 16-0.4 15.6 7.5s-3 16.6-6.1 20.4c-3 4-15.6 9.9-17 14.6-3.4 9.5 1.4 9.9-0.4 17.6-1.4 7.5-8.1 22.1-29.9 47.5-22.4 25.5-32 43.5-32 43.5s-10.9-20.4-16.6-38c-4 2-25.5 14-25.5 14l-49.8-173.3 1-11.5s4.5-5.5 5.5-15.6c-7.5-2.4-8.5-4.5-18.4-14s-18-21-34.6-28.9c-2.4-4.5-5.5-10.5-17.6-13-12.1-2.4-19.4-4.4-19.4-4.4s6.5-2.4 9.5-7.5c-7.5 1-13.6 3.4-29.9 3-16.6-0.4-18.4-1-27.5 0.4s-20 5.5-24.1-8.5c-4.4-3.4-14-0.4-22 11.5-8.1 11.9-10.9 21.4-26.5 26.1-1.1 6.9-3.5 13.5-7.1 19.4-4.4 7.5-11.5 15-21 26.1-15 17.6-12.6 46.5-36.4 68.6-24.1 22 4-61.1 4-61.1l38.4-92 109.4-107 169.9-11.5 16.6 88 82.9 28.5 52.4 79.9v-0.1z"/>
	<path class="st24" d="m1563.9 752.4-71.4-103-50-38.4s-35.6-65.5-38-67.5c-2-1.4-35.6-5-57-6.5l4 9.9c4.7 1.5 8.8 4.3 12 8.1 9.5 10.9 15.6 31.5-6.1 53.6 8.5 3 12 4 19.4 3-7.5 8.9-24.5 27.9-25.5 44.5-1 13.5 7.5 17.6 7.5 17.6s-12.9 15-13.5 40c6.1-6.9 12.8-13.3 20-19 15-12 35.6-25.5 49.6-34v1.5c0 3 0.5 6.1 1.5 9s26.1-21.4 48-11.9c9.9 4.5 5.4 18.4 5.4 18.4s13.6-5.1 23.1 4.5c9.5 9.5 23 34 29.9 43.5 3 4.5 10.9 13 19 26.1 11 18.4 20.3 37.9 27.5 58 0.4-8.1 2-19.4 16-19.4l-21.4-38z"/>
	<path class="st36" d="m493.5 1044.9s-5.1-12.6 0-37c5.1-24.5 12.9-36 15.6-72 2.6-36 26.1-80.9 26.1-80.9l64.9-29.5 45.9 12.5 13.5 61.5-58.1 32s-3 13.5-19.4 24.5-39 19.4-44.5 30.5c-3.3 6.8-5.7 14-7.1 21.4s-16.6-3.4-26.5 7.5c-10.4 11.2-10 21.1-10.4 29.5z"/>
	<path class="st37" d="m624.6 1028.5s-5.5 3.4-9.5 12c-4-6.5-13.6-44.9-14-79.5s-2.5-43.2 5.5-55.1 39.4-24.5 34.9-46c-4.5-20.4-23.1-28.9-45.9-23-16 4-27.9 38-44.5 55-12.5 13-27.5 10.9-31.5 18-5.5 9.5-0.4 19-2 25.1-0.4 2-5.5 13-14.6 26.1-18.4 26.5-49.5 63.9-53.6 97.5 1.4-19 0.4-19.4 5.5-40.5l-3-5 20-65.5 13-54 28.9-90.4 51-92.4 49.6-55.4 51.6 3.4 6.1 77.5 29.5 145.4 62.1 76.5-99.5 67-39.6 3.3z"/>
	<path class="st38" d="m655.6 1056s-8.5 2-11.5 0.4-6.1-3.4-5.1-5.5c1-2 6.5-5.5 6.5-7.1v-0.4c0-2.9-2.2-5.3-5.1-5.6-4.7-0.6-6.1 2.4-6.1 2.4s-4.5-3.4-8.1-4c2.1-0.3 4.3-0.4 6.5-0.4-5.6-2.5-11.5-4.2-17.6-5.1 5.1-3 15-11.9 21.4-11.9 6.5 0 10.5-1 9.5-4.4s-6.1-8.5-11.5-10.5c2-2.4 3.4-6.1-1.4-16-5.1-9.9-3-16.6-1.4-19 1.4-3 6.5-8.5 8.9-11.9s4.4-8.1 8.5-10.5c2-1.4 8.5-4 15-6.5 7.1-2.4 12.9-5.5 17-2.4 4.4 3 2.4 7.1 2.4 7.1s14-5.1 26.5 1.4c12.6 6 43.1 9.9 43.1 9.9l10.9 22-72.4 62.1-29.9 15-6.1 0.9z"/>
	<path class="st39" d="m756.1 954.5s-22.5 15-27.5 20.4c3 0.4 8.1 2.4 6 5.5-2.4 3-17 13.5-25.1 23.5-8.5 9.9-16.6 22.5-19.4 28.5-3 5.5-26.1 21.4-34 23.5 16.6 0 50-20.4 62.5-20.4-0.4 6.1 3.4 12.9 10.5 13.6 7.1 0.6 27.5 4.4 55-12.5 27.5-16.6 18.4-28.9 29.9-37 22-14.6 30.9-27.5 43.1-35.6 12.1-8.1 18.4-9.9 18.4-9.9s0.4-6.1 4-5.5c2 0.2 3.7 1.5 4.4 3.4s21-15 48-19c-0.6-0.3-1.1-0.8-1.4-1.4s2-1 2.4-2c0 0 1.4-2 2.4-1s2.4 8.5 4.5 11.5c4.5-2 12.9-21 12.9-21l20.4-58.5v-53.6l-16 3-120 51-72.8 75.5-8.2 18z"/>
	<path class="st40" d="m1101.5 692.6c6.5-1.6 12.7-4.1 18.5-7.5-2.4 6.5-2.4 13.6-12.9 28.9-10.5 15.4-10.9 17.6-19.4 33.6-8.5 16.6-9.5 40.5-17.6 51 3.6-1.8 7.5-2.9 11.5-3.4s-8.1 7.1-11.5 14.6-9.5 23-24.5 32.6-34 15.6-54.4 38c-20.4 22-41.5 50-52 60 5.5-9.5 12.9-28.5 15-41.1 2-12.5-0.4-27.5 3-44.1s3.4-28.5 20-57.5c16.6-28.9 44.9-129.5 44.9-129.5l61.1-19.4 18.3 43.8z"/>
	<path class="st41" d="m1057.4 655.5s-18.4 26.5-23.4 50c-5.1 23.5-0.4 21.4-3.4 33-0.9 3.5-1.4 7.1-1.4 10.7s0.5 7.2 1.4 10.7c6.4-10.3 15.1-18.9 25.4-25.1 17.4-10.5 31.6-18 40-26.9 8.5-9.5 15.6-25.1 34-37-7.5-1-18-4.5-20-4 7.5-8.5 29.9-21.4 52.6-37 22.5-16 21-22.5 57.5-38.4-11.9 2-17.6-1-27.5 0 4-8.5 18-12.5 32-26.5s-8.9-34.6-8.9-34.6l-106.7 64.5-51.6 60.6z"/>
	<polygon class="st42" points="768 607.4 770.4 588 801 539 832.9 453.1 832.9 335.6 830.5 267.6 835.6 223.1 839.4 209 843.4 203.5 869.5 217 905.6 266 909 360.4 874 509.5 774.1 618.5"/>
	<path class="st32" d="m847.5 198s-16 0.4-19.4 67-5.1 101.5-7.5 134.5-8.1 53-10.9 72.4-4.5 45.9-13.5 62.1c-4 7.5-12.6 30.9-32.6 48.5-22.5 19.4-56 33-61.1 34-8.9 2-54 6.5-72.4 16.6-6.5 3.4-17.6 7.5-29.9 19-24.5 22-57 61.5-80.5 109-36 71-72 271.4-72 271.4l8.1-13.5s1-18 19-49.6c17.6-31.5 12.6-66.9 37-127.4 9.5-23.1 21.4-53 36-78.5 23.1-41.5 51-77.1 79.1-96.5 45.9-31.5 96.5-38.4 96.5-38.4l54.4-36s9.5-18.4 22.1-39.4c17.6-29.5 40-62.5 44.9-110.4 7.5-71-10.5-117.5-9.5-159.6s1.4-73 9.9-80.5c8.4-7.5 2.3-4.7 2.3-4.7z"/>
	<path class="st43" d="m847.5 515.6s24-59.1 35-111.5c2-10.5 6.1-21 7.1-29.5 5-49.6 6.5-70 0-97.1-5.1-20-24.5-38-34.6-52-9.9-14.6-14.6-20-12.5-23.1 2-3.1 9.9-8.1 17.6-7.5 16.5 0.5 32.1 7.7 43.1 20 15.6 18 27.9 79.1 27.9 79.1l13 80.6 33 101.5-129.6 39.5z"/>
	<path class="st44" d="m1073 454.1s-4.4 2-12.5 0c0.1 0.6 0.1 1.3 0.1 1.9 0 6.1-3.1 11.8-8.2 15.1-8.5-3.4-88 3.4-88 3.4s-37-6.5-48.5-55.4c-8.1-32.6 6.1-77.5 1.4-107-7.1-43.5-17-52-18-65.5s-2-17-2-25.5c-4.5-1-7.1-2.4-11.5-2.4-1-4 1-7.5-3.4-14.6 2.4 1 19 3 38.4 21.4 16 15 16 20.4 18.4 23.5 3 3 27.5 24 38 44.9s31 87.6 35.6 98.5c1.4 4.5 4.5 8.9 12 19 11.7 14.6 28.9 38.7 48.2 42.7z"/>
	<path class="st32" d="m942 250c12.2 19.8 23.3 40.3 33 61.5 11.9 26.9 19 49 34 67-8.1-23.5-22.5-69.6-30.9-86-9.7-17.4-29.1-36-36.1-42.5z"/>
	<path class="st45" d="m804.4 582.5s-20.4 5.1-58.4 25.1c-12.6 6.5-24.5 11.9-36 17-30 13.5-62.1 26.1-87.6 33 2 2.4 3 3.4 3 3.4s0 9.9 5.5 15.6c-3 3-43.5 30.5-31.5 122.6 8.1-3 17.6-7.1 19-7.1 2.4 0.4 3 7.1 6.1 7.1 3 0 12.9-4 23.5-17.6-0.4 5.5-6.5 60.5 26.1 97.5 6.1-7.1 21.4-30.5 21.4-30.5l0.4-7.5s1.4-26.1 9.9-50 25.1-41.5 25.1-41.5l86.5-123.6-13-43.5z"/>
	<path class="st46" d="m723.5 764c-4 2.8-8.3 5-12.9 6.5-1.4-5.1-3.4-22.5 8.5-39.5 14-20.4 44.5-46.9 53-68 5.5-13.6 3-47.5 51.6-91 48.5-43.5 67.5-58.5 67.5-58.5l78.5-39.4 96.5 38-48 187.9-37.2 88-148-27.9-109.5 3.9z"/>
	<path class="st47" d="m780 713 18.4-23.1v-16.4s20.4-5.5 42.5-27.9c22-22.5 52.6-65.5 79.5-62.9 26.9 3 29.5 58.5 30.5 74 1 15.6 4.5 51 9.9 70 6.1 19-65.5 91-65.5 91l-48.6 37-66.7-141.7z"/>
	<path class="st48" d="m837 904.9s15-23.5 4-28.5c6.5-14.6 18.4-29.9 18.4-29.9s8.5-21 36-46.9 44.5-43.1 49-60.5c2.8-11.3 4.3-23 4.5-34.6 3 2.4 6.1 4.6 9.5 6.5 4.4 2 25.5 19.4 22.4 54.4s-16 49.6-16 49.6-12.5 12.5-21.4 19c-9.5 6.5-13 13.9-28.9 14.6 1.6-1.3 3.5-2.3 5.5-3s-16.6-2-25.5 6.1-27.8 33-37.4 40.5c-9.6 5.9-20.1 12.8-20.1 12.7z"/>
	<path class="st49" d="m1509.5 511.5c-23.9-8.7-49-13.6-74.4-14.5-42.5-1.4-104.6 1-165.5 1.4-65.5 0.4-125-22.5-207.5-26.5-13.6-8.1-48-43.5-155.5 31.5 6.5-0.4 78.1-16.6 102.9 14.6 25.1 31 18 83.5 14.6 96.1-6.5 27.9-27.5 68.6-36 97.1s-6.5 43.5-12.5 63.5c-6.1 20-19.4 29.9-11.5 53 10.5-6.5 16-6.5 33.6-45.9s14-67.6 43.1-100.9c28.5-33.6 76-79.5 94.1-91s161.4-86 311.5-15c36-3.9 63.1-63.4 63.1-63.4z"/>
	<path class="st50" d="m967 484c-0.2-1.5-0.5-3-1-4.5-1.4-3-3.3-5.7-5.5-8.1s-35.6-6.5-53.6-4.5c-31.6 3.4-60.1 42.5-73.4 62.5s-29.9 51-47.9 67c0-0.3 0.1-0.6 0.1-0.8 0-1.3-0.4-2.5-1.1-3.6s1 1.4-1 3.4-2 3-1 4l3 3c1 0 28.9-12.5 66.9-48 40.4-37 71.4-56 87.6-62.5 8.7-3.6 17.7-6.3 26.9-7.9z"/>
	<path class="st51" d="m1657.6 331.9s-6.5 8.1-14.6 17c-18 19-41.5 40.4-61.5 62.5-19 21-40.4 37.4-64.5 64.9s-52 58-59.1 66.9c-6.5 8.9-11.5 23.5-11.5 31-3.4-2.4-7.5-5.1-7.5-5.1 1.7 3.2 3.7 6.2 6.1 8.9 5.1 7.1 12.9 16 17 21.4 5 6.9 8.5 14.8 10.5 23.1 2.4 0.4 18 3.4 37.4-28.5s44.9-67 44.9-67l40.5-60.1 25.5-51 32-57 4.8-27z"/>
	<path class="st32" d="m1699 291.1s-24.5 20-34 32-32 43.5-32 43.5l8.1-1 41.1-36.4 16-28.5 0.8-9.6z"/>
	<path class="st52" d="m1691.6 1898.5s-0.4-16.6 8.9-26.5c9.5-9.9 33.6-24.5 57-79.1 23.5-54.6 26.1-66.9 26.1-66.9s-42.1 36-68 44.5c6.1-12.6 9.5-21.4 12.6-27.9-3.4-3-18-6.5-19.4-8.1 8.1-8.1 12.5-27.9 28.9-41.1 21-16 59.5-43.5 89.3-68 29.9-24.5 88.6-81.5 96.1-98.1 4.4 6.5 5.5 10.5 5.5 10.5s-29.5 38.4-44.9 62.9c-13.6 21-12.6 33-12.6 33l27.9-12s8.1 29.9-28.5 75.5c16-6.1 22.5-2.4 31.6-7.5-15 9.5-35.6 22.5-55 58.1-19 35.6-44.9 77.1-88.6 102.9-42.5 27.3-67 47.7-66.9 47.8z"/>
	<path class="st53" d="m1581.9 532.6s-16.6 34.6-19 61.5c-0.4 6.5-2 11.5-2 19-0.4 24.1 1.4 51-4 63.5-2-5-3-8.5-5.1-10.5-3 8.5-8.5 35-12.9 44.9-2-6.5-6.5-28.9-6.1-55.4s1-31.6 1-37c-1 8.1-6.5 19-8.5 25.5-3-5.5-6.5-12.5-10.5-18.4-2.4 4-5.4 9.9-8.1 13-0.4-2.4-1.4-8.9-2-18-0.4-10.5-1-24.1-0.4-26.9 1-5.5 9.5-26.9 27.5-46.5 21.4-23.5 43.5-68.6 50-82.5s34-72 34-72h21l-30.5 69.6s-18.4 38-27.9 52-29.5 54-38.4 69.6c6.5-8.5 11.9-12.9 18.4-21 6.2-5.9 23.6-30.4 23.5-30.4z"/>
	<path class="st54" d="m1699.4 288.4c-3.4 10.6-8.9 20.4-16 28.9-12.6 15-39.4 35-52.6 51-12 15.6-36 58.1-25.1 108.4 4-10.9 11.5-32.6 31.6-57s41.5-52.6 52-74.4c10.5-22.1 11.9-39.4 11.9-39.4l4-5-2.4-11.5-3.4-1z"/>
	<path class="st32" d="m2109 1630.1s-8.1-22-10.5-42.1c-2.4-20 4-24-3.4-46.9-4.5-14-12.5-12-14.6-14-2-2-3.4-23.1-3-34.6s-0.4-26.5-2.4-33c-3-2.4-5.1-4.5-9.5-19.4-5.1-15-7.5-22.4-9.9-26.9-2.4-4.4-9.5-8.5-9.5-12.9 0-8.9 8.1-13.5 8.1-16-0.4-5.1-6.5-1-8.1-2.4-2-2.4 5.1-17 2.4-19-1-1-8.1 7.5-9.9 5.1-2-2.4-4.5-26.5-8.1-42.5-3.4-15.6-7.1-26.9-7.5-31.6-0.4-4.4-27.9-82.9-34.6-101.9-5.3-16-9.9-32.5-13.5-48.9-2-9.5-3.4-28.9-4.5-26.9-1 2-0.4 11.9-2 11.5-1.4-0.4-6.5-35-8.1-40.4-1.4-5.5-9.9-24-12-37.4-2-13.6-6.5-49-9.5-73s-4.5-34-4.5-40c0.1-2.8 0.1-5.6 0.1-8.4 0-11.9-0.9-23.9-2.6-35.7-4-25.5-12-56.4-19-74.4-13.5-34-49.6-121-56-142.6 0-5.5 7.1-2.4 7.1-2.4s17.6 44.1 30.5 78.1c12.5 34 24.5 63.9 27.5 67 2.4 3 21.4 36.4 29.9 91s11.5 105 16.6 138.5c2.4 16 4.4 33 9.5 50 5.5 18.4 13.9 37.4 25.1 66.5 9.5 24.5 16.6 44.9 20.4 62.5 4.4 22.4 4.4 39.4 7.1 50.6 2.4 9.5 6.1 28.5 14.6 56s21 62.9 29.5 84.9c16.6 44.1 24 80.9 26.5 100.5 2.3 20.1 9.8 90 7.8 111.1z"/>
	<path class="st55" d="m1700.4 286-1 2.4s3 1 2.4 5.1v0.9c0 5.2-0.4 10.5-1 15.6-1 7.1-3 12.5-3.4 17 0 9.5 1.4 20.4-12 47.5-4 7.5-6.5 14-8.5 18.4-5.1 10.9-6.1 12.5-10.5 17.6 7.1-4 32.6-20 45.5-17.6-8.9 5-22.5 15-30.9 27.9 2 0.4 10.5 2 24 0 22.4-3.4 47.5-11.5 69.6-9.9 24.1 1.4 14.6-28.9 14.6-28.9l-27.8-61.1-52.6-37-8.4 2.1z"/>
	<path class="st56" d="m1837.6 743.5s-23.5-23.5-33-104c-9.5-80.9-7.5-200-7.5-200l-19-46.5s-4-30.9-14-42.5c-10-11.5-29.5-31-38.4-40.5s-19-22.5-25.1-24.5c3-5.1 16.6-33.6 68.6-34s68 28.5 73.4 39 29.9 56 39 142.7c8.5 86.6 8.9 93 7.5 123-1 16.6-6.5 55-16 96.1-8.6 34.9-18.1 73.7-35.5 91.2z"/>
	<path class="st53" d="m1764 812.5c0.9 0.1 1.9 0.1 2.9 0.1 6.9 0 13.6-1.8 19.6-5.2 7.5-0.4 34.6 3 55.4-23.5 1.4 6 5.1 22.5-4.5 37 5.1-5.1 12.5-7.1 13.6-8.5 0.4 7.5 7.5 30.5-22.5 86.6 8.1-8.9 17.6-8.5 26.1-9.5 0.4 10.5 6.1 45.9-8.9 64.9-9.9 13-26.1 8.9-26.1 8.9 0.1-1.4 0.2-2.8 0.2-4.3s-0.1-2.8-0.2-4.3c-0.4-5.5-2.4-10.9-1-14.6-7.8-3.5-14.9-8.5-21-14.6-17.6-16.6-40.5-44.9-42.1-65.9-2-23.5 19-28.5 19-28.5-1.8-1.6-3.3-3.4-4.4-5.5-1-3.2-2.1-8.7-6.1-13.1z"/>
	<path class="st57" d="m1608 558s-1-1.4-6.5 5.1c1-6.5 2-12.5 2.4-18.4 2.6-5.4 5.9-10.5 9.9-15-3 6-5.1 11.5-5.1 11.5s7.5-14 18.4-22.5c7.5-6.1 17-8.9 21-14.6 4.4-6.1 3.4-7.1 4.4-8.1 0 0 9.9-6.5 25.1-25.5 2-2.4 5-5 7.1-7.5 3.4-1.4 11.5-5 21-9.9 9.9-5.5 21-12.9 27.9-16 13.5-6.1 27.9-5.5 34.6-15 5.1-1.4 10.5-16.6 9.5-29.5 7.5 3 45.9 26.9 59.1 79.1 9.5 37-7.5 94-14.6 121.6-7.1 27.5-8.1 47.9-18 60.5-12.5 16.6-53 40-62.9 51.6-8.5 9.5-34 33.6-33 51 1 13 17 20 20.4 22.5s3.4 5.5 9.9 4 8.9-4.5 11.5-4.5c3 0.4 3 1 4.4 1 1 0 2.1-0.2 3-0.4 1-0.3-1 18.4-44.1 24-3 0.4-6.1 1.4-9.9 2 5.1-2.4 8.1-2.4 13.6-9.9-6.1-1-23.5-2-27.9-3.5 1.4-2.4 6.1-8.9 9.9-11.9 3.4-3-0.4-4-3.4-2.4-5.2 3.5-10.2 7.4-15 11.5-5.1 4.5-9.5 10.5-17.6 16-2.4-8.1-2-23.5 7.5-34.6-2.4 0.4-7.1 7.5-11.5 6.1-0.3-2.3-0.4-4.6-0.4-7 0-5.1 0.6-10.2 1.8-15.1 2.4-9.1 15.6-25.1 15.6-25.1l63.5-113.5 13.5-86-145.1 28.4z"/>
	<path class="st58" d="m1604.6 562.9s-3.4 2.4 3.4 7.1c-1 1.4-3.4 6.5-6.5 9.9-3.4 4-7.1 6.5-8.5 9.9-3 7.1-5.5 11.9-5.5 15 0 3-1 22.5-9.5 35-3 4.5-6.5 11.9-8.9 17-5.1 8.9-9.5 16-10.5 20-2 7.1-3.4 26.5-3.4 26.5s4.4-5.5 6.1-7.5c-2.4 5.1-5.1 10.5-8.9 14.6 2.4-2 9.5-7.1 21.4-17.6 16.6-13.9 42.5-37.4 74-56-9.5 3.4-17.6 3.4-24.1 4.5 5.1-5.1 50.6-58.5 74.4-63.5 1.3-1.7 2-3.8 2-5.9v-0.6l-20.4-2-41.5 8.9-6.1-32-27.5 16.7z"/>
	<path class="st59" d="m1670.5 745s-5.5 5.5-10.5 19c-3.9-4.1-7.2-8.6-9.9-13.6-7.5-12.5-19-28.5-45.9-19.4-0.4-8.5-1-13 0-19 4.4-1 18-11.9 31.6-27.9 9.5-10.9 18.4-23.5 24.5-39.4 4-3 10.9-8.1 20-14 12.9-8.9 28.5-21 30.9-34.6-6.1 2.4-19 8.5-38.4 7.5 7.5-3.4 19-7.1 17.6-22 3-2 5.5-3.4 5.5-3.4-2-0.7-4.2-1-6.3-1h-0.8c-0.4-1.4-1-3.4-4.4-2.4s-4 1-4.4 2.4c-1.4 0.4-6.1 0-9.5 2.4s-12.9 10.5-16.6 11.9c1.4-2.4 3.4-6.1 3.4-6.1s-9.9 1-17 4c-12.9 4.5-27.9 12.5-43.1 20.4 1.4-2.4 2-4 3-4.5s3.4-1 3.4-1.4-1-4-0.4-5.5c4.5-9.6 9.9-18.8 16-27.5 7.1-9.5 8.5-23.1 8.5-23.1l30.9-15.6 87-20 56.4 3.4-7.1 39-33.3 68.2-28.5 62.1-32.6 38-30 22.1z"/>
	<path class="st60" d="m1811.5 576s-34 42.1-43.5 48.5c6.1-13 43.5-90 57-111.5-3-2.4-7.1-2.4 2.4-40-8.1 19-10.9 28.9-17.6 34s-7.5 3.4-12 3.4c0.7-1.3 1.1-2.7 1.1-4.1 0-0.3 0-0.6-0.1-1 0-0.3-28.5-3.4-48-3.4s-58 10.5-79.5 19c-17 7.1-26.5 7.1-32.6 11.5-6.1 5-9.5 10.5-12.6 11.9-2.4 1.4-13.9 5-16.6 8.9-2.4 4-6.5 8.5-6.5 9.5s-1 2.4 2 1.4c1-0.4 8.5-4.5 17-9.5 11.5-6.5 25.5-14 35.6-18.4 28.9-11.5 38-9.5 51-11.9 13.6-2.4 33-8.1 45.9-8.1 13-0.4 37.4 0 43.1 1-2.4 2-4.4 4.5-3.4 13 0 2.4-2 5-4 10.9-6.1 16.6-17.6 44.1-24 58.1-8.9 19-19 35-24 44.9s-16 36-26.9 50-16.6 22.5-20 25.5-27.9 21-26.1 27.5c4.4-1.4 32.6-12 53-35s24.5-37 40.4-49.6c16-12.5 28.5-33.6 36-51 6.5-16.1 5.1-21.1 12.9-35.5z"/>
	<path class="st61" d="m1079.1 890s-4.4 18.4-14.6 27.5c-9.9 8.9-27.5 16.6-29.5 31.6-2.4 15 17.6 22.5 17.6 22.5s-10.9 18-10.9 31.5c0 14-0.4 16.6 1 29.9-1.6 1-3 2.4-4 4s1 12.9 10.9 21 18.4 12.9 23.4 10.9c0.8 1.6 1.5 3.3 2 5.1 0.6 1.7 7.5-19 12.6-35.6 5.1-17 9.5-14.6 11.5-37.4s24-62.1 24-62.1l15-33.5-24.5-19-34.5 3.6z"/>
	<path class="st62" d="m1124.6 922.9c-5 5.2-9.7 10.8-13.9 16.6-6.5 8.9-11.5 17-21 20.4-9.5 3.5-15.6 3.4-15 13s9.5 13.5 14.6 18.4c5.5 5 9.9 13.5 7.5 23.1 3-1.4 8.5-3 13.5-14 5.1-10.9 40.4-77.5 40.4-77.5h-26.1z"/>
	<path class="st63" d="m1264 769.4s3-8.1 0-13.9c-3-6.1-21.4-8.1-30.6-15-9.5-7.1-21-12-30.5-8.9 1.4-3.4 7.1-10.9 2.4-12.5-4.5-1.4-21 6.1-25.5 9.5s-14.6 7.5-16.6 9.9-5.5 7.1-7.5 5c-2-1.4-3-5-6.5-3s-20 15.6-23.1 23.5-9.9 25.5-30.5 45.5-29.5 33-23.5 40.5c6.1 7.5 8.9 2 9.9 8.5 0.3 2.2 0.4 4.4 0.4 6.7 0 4.2-0.5 8.3-1.4 12.4-2.4 10.5-6.5 20.4-1 22.5 14 4.5 27.5-4 30.5-1.4 6.1 5.5-3.4 25.1 10.9 28.9 14.6 4 28.9-3.4 28.9-3.4l53-28.5 51-26.9 26.1-51.6-14-43.1-2.4-4.7z"/>
	<path class="st64" d="m1214 892.6s-8.9-13.5 2-25.5 26.5-17 32.6-24.5c-1.2-1.4-2.7-2.5-4.5-3 4-7.2 10.2-13 17.6-16.6-3-3-7.1-5.5-11.5-5.5-9.9 0-16 6.1-25.1 6.1-8.9 0-9.9-4.5-9.9-4.5s15-1.4 13.6-8.1c-1.4-7.1-4-7.1-4-7.1s28.9-12 34-18.4 4.5-14 5.5-17c3.4 0 23.4-10.5 31.5-6.1 8.1 4.5 2.4 16.6 2.4 16.6s24.5-18.4 37-36.5c10.9 1 16-7.5 24-7.5 9.9 0 25.5 13.5 28.5 42.5 2 16.6 5.1 26.1 2 55.4-1.4 16.6-1 52 4 69.6 3.4 14 11.5 12.5 11.5 12.5-1.2 4.3-3.7 8-7.1 10.9-5.5 5-6.1 18.4-5.5 23.5 0.8 3.7 1.8 7.3 3 10.9s-6.5 7.5-8.1 12.5c-1.4 5-8.1 8.5-12.9 8.5-4.9 0-2.4-0.4-8.9 0s-8.5 1.4-12.6 0c-4-1.4-7.1-3-5.4-16 1.4-13-50-43.1-50-43.1l-84-29.9 0.3 0.3z"/>
	<path class="st65" d="m1117.5 1020.4s18.4 24.5 94.1 24.5c36 0 48.6-3.4 56-5.5 8.1-2 38.4-13.9 69-50 27.5-32.6 21.4-45.9 21.4-45.9l-16-2.4-52 7.1-153.9 65.5-18.6 6.7z"/>
	<path class="st66" d="m1173.9 1026.5s-65.5 14.6-65.5-26.9c0-40.5 40.5-82.9 50.6-90.4 10.5-7.5 35.6-16 35.6-16h60.5l11.5 30.5-5.1 65.9-87.6 36.9z"/>
	<path class="st67" d="m1234.4 905.5s-12.5-11.5-41.1 4c-28.5 15.5-51.6 48-53 77.5-1.4 26.1 21.4 45.5 57 46.5 26.5 1 42.5-2 50.6-4-2-2.4-12.6-15.6-12.6-15.6l-0.9-108.4z"/>
	<path class="st68" d="m1222.1 912s-3-2.4-12 2.4c-7.5 4-18.4 14.6-26.9 22-5.5 4.5-8.9 6.5-12 9.9-12.6 15-23.1 39.5-17 51.6s26.1 26.1 77.1 16.6l-9.4-102.5h0.2z"/>
	<path class="st66" d="m1205.5 937.1s-8.1 12.5-8.1 32.6c0 20.4 11.5 53 54 55.4 32.6 2 54.4-46.9 78.1-65.9 18-14.6 28.9-15 28.9-15s-18.4-20-67.5-45.9c-48.6-26.1-103-29.5-132.5 10.5 14-1 59.1-12.5 59.1-12.5l22.1 7.1-34.1 33.7z"/>
	<path class="st69" d="m1269 963.6c-1.4-3-2.4-7.1 3.4-8.1 5.9-1 8.5-0.4 10.5 4s4 8.1 1 9.9c-3 1.6-10.9 0-14.9-5.8zm-9.5-28.5s-2 1.4-1-1.4c0.4-3.4 3-9.5 9.5-8.1s5.1 8.5 4 10.5-6.5 5.5-10.5 4c-1.5-0.4-2.5-1.7-2.5-3.3-0.1-0.6 0.1-1.2 0.5-1.7z"/>
	<path class="st70" d="m712 948s16 12 34.6 11.5c18.4-0.4 42.1-19.4 53-31.6 6.5-7.1 12-14.6 18-20.4 5.1-5.1 8.5-7.5 10.9-10.9 3.4-4 7.1-11.5 8.9-14-4.4 3.4-10.9 9.5-17.6 13.6-6.5 4-20.4 11.5-26.1 13.5-5.5 2-62.1 32-62.1 32l-19.6 6.3z"/>
	<path class="st71" d="m736.4 798.5s8.9-6.1 26.1-9.9c16.6-4 50-7.1 50-7.1l27.5 12 10.9 41.5-20 43.1-25.5 16-28.9-46.5-40.1-49.1z"/>
	<path class="st72" d="m700.4 835.6-9.5 7.1s2.4-4.5 4.5-18c2-13.5 12.5-46.5 27.9-65.5s15-18 15-18c-0.6-0.1-1.2-0.2-1.8-0.2-2.3 0-4.5 0.8-6.3 2.2 2-4.5 15-20.5 27.9-28.5s18-10.5 31.5-4c13.6 6.5 17 9.9 26.9 9.5s18.4-10.9 18.4-10.9 2 6.5-5.5 21.4c-7.5 15-37 45.5-37 45.5l-61.4 42.1-30.6 17.3z"/>
	<path class="st73" d="m745.9 793.5s44.5 6.1 58.1-6.5c0.4 1.4 2 1.4 2 2.4-0.1 0.8-0.5 1.5-1 2 1.5-0.2 3-0.4 4.5-0.4 1.8 0.5 3.6 0.9 5.5 1 1.5 0 3-0.2 4.5-0.4-0.3 2-1.4 3.9-3 5.1 2 0 4 0.4 4 2s0.4 6.5-2 7.5c-0.8 0.2-1.6 0.3-2.4 0.3-1.3 0-2.5-0.3-3.6-0.7 0.2 3.8 1.2 7.6 3.1 10.9 4 7.5 12.5 16 24 13.5 0 0 6.1 14.6-19.4 46.9-3.4 4.5-7.1 10.5-11.5 15.6-1.8 3.8-3.1 7.8-4 11.9s43.1-16.6 55.4-54.4c12.5-38 15-75.4 12.5-110.4-0.4-9.9-2-17-4.5-22.1-6.1-12.5-23.1-10.5-29.9-3.4-9.9 9.9-26.5 34.6-49.6 51.6-23.7 17.1-24.7 20.1-42.7 27.6z"/>
	<path class="st65" d="m692.6 848.1s-8.5 5-13 24c-4.5 19.4 4 43.1 8.9 50.6s16 27.9 39 28.9c5.7 0 11.3-1.2 16.6-3.4 8-3.7 15.6-8.4 22.5-14 9.9-7.5 18-13.9 17-14.6-2.4-1-61.1-49.6-61.1-49.6l-22.1-24.6-7.8 2.7z"/>
	<path class="st74" d="m748 928.6s11.9-1 19-5.5-41.5-52.6-41.5-52.6l3.4 52 19.1 6.1z"/>
	<path class="st75" d="m696.4 844.5s-6.1 11.5-6.1 14.6c-1 9.9 2 41 4.5 51 2.4 10.5 15.6 26.5 32.6 26.5 10.5 0 25.1-6.5 25.1-8.1 0-2-15-4-19-11.5-2.4-4-3.4-14-4-24-0.4-6.5-0.4-13.5 2-16 5.5-6.1 6.5-23.5 6.5-23.5l19.4-36.1h-25.5l-30.6 19-4.9 8.1z"/>
	<path class="st66" d="m688.9 855.6s20-26.5 38-32.6 26.1-2.4 26.1-2.4l-10.5 26.9-15 16.6 1 8.5s-2.4 22.5 12.5 38c15 15.6 26.1 15 32.6 15s25.1-5.5 34.6-27.9c8.5-21 15.6-48-1.4-75-16.6-26.9-45.9-27.9-51.6-27.9-5.6-0.1-50.1 2.1-66.3 60.8z"/>
	<path class="st76" d="m1202.5 945.6c-7.5-3.4-0.4-24.5 7.1-31s17-14 33.6-15c6.1-0.4 11.9 3.4 10.9 7.5-1.4 7.5-11.9 18-21.4 25.5-13.2 10.4-21.7 16.8-30.2 13z"/>
	<path class="st77" d="m797.9 830.9c5.5-0.4 12.6 4 14 9.9 1.4 6.5-3.4 19.4-14 19.4-8.5 0-12.9-10.5-12.9-13.5 0.1-2.5 0.8-4.9 2-7.1 0.4-0.6 1.4-7.7 10.9-8.7z"/>
	<path class="st78" d="m719.1 835.6s-14 6.5-20.4 20c-3.2 7-4.9 14.6-4.9 22.3 0 3.3 0.3 6.5 0.9 9.7 1 5 6.1 17.6 9.5 22 3.5 4.5 8.1 7.5 11.5 7.1s10.5-9.5 10.5-15 0.4-28.5 7.1-41.1c5.8-12.5-14.2-25-14.2-25z"/>
	<path class="st79" d="m721.1 834.5c-2.4 1.4-6.5 3.4-5.5 6.1 1 2.4 9.5 4 12.5 9.9 3.4 6.1 3.4 12.5 2.4 15.6 2.6-1.3 5-3 7.1-5.1 4.5-5 9.9-11.9 14.6-11.9 3 0 6.1 1.4 8.9 1.4 4.5 0 8.9-1.4 9.5-6.1 1-6.1-8.5-11.5-14-10.5 1-4 2.4-9.9-2-14-4.5-4-18.4 3-21.4 5.1s-12.1 9.6-12.1 9.5z"/>
	<path class="st80" d="m1042.5 1259.5 29.9-8.8 8.5 6.1s6.1 12.9 15.6 14.6c-3 6.5-10.9 12-10.5 16.6s4.4 8.1 4.4 8.1-26.9 44.5 26.1 89.3c-12.5 5.1-28.5 12-37 16 6.1 1.4 19 4 24.5 8.9s5.5 6.5 10.5 9.5 8.1 7.1 7.1 8.9c-3.4-2-15-8.1-17-2.4s-50 3.4-50 3.4l-80.9 15.6s3-8.1-5.5-15.6c-9.9-8.9-22 0.4-35-9.5-17-12.9-17.6-27.9-23-33.6 5.5-3.4 16.6-8.5 43.1-12-1-2-4.4-8.1-2.4-13.6 2.4-7.1 12.5-11.5 9.5-20 4.4-1 6.5-1 17.6-15 10.5-14 17-17 25.1-18s12.9 0 27.9-14c10.5-9.9 7.1-18.4 7.1-18.4s6.8-2.2 4.4-16.1z"/>
	<path class="st81" d="m954.1 1264c0.4-2 2-3 12.9-2s80.1-6.5 98.9-7.5c19-1.4 86-0.4 118.5 6.5 32.6 6.9 65.5 15 81.5 19 16 4.5 21 6.1 20.4 8.1-0.4 2-4 4-6.1 3.4-2-0.4-55-16.6-71.4-20s-73-12.5-104-12c-28.9 0.4-40.4-0.4-64.9 2.4-24.5 3-64.9 7.1-77.1 5.5-11.8-1.4-9.4-1.4-8.7-3.4z"/>
	<path class="st82" d="m1116.9 1422.5s41.5 22.5 56.4 50c10.9 20.4-6.5 30.6-6.5 30.6s23.5 0 20.4 12.9c-1.4 8.1-40.5 29.9-66.6 41.4-26.5 11.5-25.5 10.9-38.4 12.9-12.5 2-46.9-4-54 6.1s-4 20.4-2 22.1c2 1.4 18.4 3.4 18.4 3.4s-3.4 9.5-37.4 10.5-42.5 3.4-44.5 7.1c-2 3.4 6.5 1.4 22 4 15.6 2.4 37.4 4 37.4 4s-7.1 6.1-25.5 10.9c-21 5.4-54 10.5-63.9 16.6 5.1 3.4 12.5 8.5 16 8.9-8.5 2-20.4 6.5-22.5 8.1 3 2 7.1 4.4 7.1 4.4s-17 20.4-26.9 25.5-66.9 31.5-86.6 26.5c-48.9-12.9-55-66.6-66.9-70.6-18-6.1-26.5 6.1-42.5-2.4 7.1-5.1 10.9-8.1 18.4-11.5-8.1-4-50-30.5-50-30.5-4.3-9.5-9.3-18.9-14.6-27.9-8.1-14-20-32.6-28.9-49-19.4-36-20.4-52.6-38-73 3-4 13.5-3.4 13.5-3.4l147.5 48.5 261.5 7.6 68-97.1 29.1 3.4z"/>
	<path class="st83" d="m729.6 1570.6c1.6 1.8 3.4 3.3 5.5 4.4 5.1 3.4 12.6 7.5 17.6 13.6 2-3 7.1-8.5 16 0s20 2.4 26.9 4.4c7.1 2.4 7.5 3.4 7.5 3.4s4-3.4 12.9-7.1c5.5-2 11.9-3.4 19-5.4 6.5-1.4 13.6-3.4 18.4-3.4 4.5 3 20.4 20 84.5-5.1 60.5-23.5 74.4-26.1 84.6-22.5 1-2.4 2-7.1 17.6-6.5 0-6.5-12.9-28.5-12.9-28.5l-71.4-24.5h-39.1l-117.1 21.6-64.9 37-5.1 18.6z"/>
	<path class="st84" d="m690.5 1529.5s1.4 10.9 17.6 22.5c16 11.5 21 18.4 21 18.4s3-4 5.5-8.1c2.4-4.5 4.5-9.5 8.5-10.9 8.1-3.4 26.5 3 30.5 2 3.4-1 2.4-8.1 6.1-8.1 8.5-0.4 13.9 5.4 17 5.4s10.5-0.4 11.5-2 1.4-18.4 12.9-26.5c12.5-8.9 27.9-5.1 32-3 0 3 0.4 10.5 8.5 10.9s8.9-1 16 1.4 15.6-0.4 19.4 11.5c3.4-1 11.5-2 9.5-13.6 4-3 7.5-5.1 16-17 2-3 5.5-6.5 8.1-10.9 7.1 0 15.6-1.4 26.9 8.5-3.4 2.4-5.5 4-6.5 6.5 3 2.9 5.7 6.1 8.1 9.5 3 4 5.1 8.9 8.9 9.9 8.5 2.4 22.4-1 38 0 15 1 27.5 6.5 33 9.9 2-1 2-1.4 7.1-0.4s8.9 1.4 3.4-5.1c3 1.4 6.5 4.4 9.5 1.4s5.5-7.5 13.9-8.5c8.5-1 11.5 0.4 15-8.5 4.4-10.9-10.9-10.9-10.9-10.9s7.1-6.5 15-15c9.5-8.9 20.4-20.4 23.1-34.6 4.4-26.1-21-29.5-21-29.5l-123.6 38-151.1-7.5-128.9 64.3z"/>
	<path class="st85" d="m579.5 1172.5s-4 5.1-6.5 17-1.4 10.5-3.4 19-26.9 93-17.6 121.6c9.3 28.5 25.5 39 35.6 62.1 2 5.1 4 8.1 5.1 12.5 3.4 15 0.4 26.5 4.5 41.5 1.4 5.1 5.1 10.9 10.5 17 12 12.5 31.6 24.5 40 33 11.9 12.5 28.9 38 50.6 40.4 11.5 1.4 27.9-3.4 41.5-11.5 12-7.5 19.4-18 32-24 8.9-4.5 18.4-6.1 26.9-8.1 17.6-3.4 33.6-4 43.1-2 14.6 3 48.9 13.6 68 13.6 14.9-0.2 29.7-2.3 44.1-6.1 28.9-8.5 63.9-23.1 87-29.5 13.5-4 24.5-5.1 35.6-7.5 19-4.4 35-10.5 44.1-22.1-6.1-7.1-13.6-18-54-17.6-45.9 1-98.9 26.5-125 30.6s-37.4 7.5-66.6-3c-28.6-10.6-29.5-17.7-29.5-17.7s-30-21-42.5-74.4c-12.5-53.5 0-92.4 32.6-129.4 8.5-9.5 6.5-18 6.5-18s21.4-28.9 15.6-56c-6.5-26.9-47.9-21.4-47.9-21.4l-230.3 40z"/>
	<path class="st86" d="m614.1 1262.6c-1.6 3-2.5 6.4-2.5 9.8v1.1c0.4 5.5 2 12.5 18.4 28.5 14 13.9 10.9 29.5 10.9 29.5s7 1.4 26.1-7.5c15-7.1 20 5.5 20 5.5 4.3-2.3 9.1-3.8 14-4.5 4.4-0.4 8.7-1.8 12.5-4s17.6 18 33 26.5c14 7.5 22.1 12.5 28.9 7.5 6.5-4.4 6.5-13.6 6-17.6-1.6-3.7-3.6-7.3-6-10.5-4.5-6.5-11.5-14-12-20-1-13.9 10.5-30.6 8.1-34.6s-11.5-5.1-34 3c-23.2 7.7-123.5-12.7-123.4-12.7z"/>
	<path class="st87" d="m667.1 1353s-11.5-10.9-7.5-63.9h1c4.6 0 9.1 0.5 13.6 1.4 4.4 0.9 6.2 41-7.1 62.5z"/>
	<path class="st66" d="m585 1132.1c1.6-1.2 3.1-2.5 4.5-4-4 7.5-22.5 37.4-7.5 84.6 15 46.9 52.6 81.9 98.9 83.5s70.7-21 98.5-55c10.9-13.6 23.5-30.6 34.6-42.1 16.6-18 29.5-23.1 29.5-40.4 0-35.6-36.4-51.6-90-67.6s-102-14-127-3.1c-24.5 11.9-35.1 24.5-41.5 44.1z"/>
	<path class="st88" d="m757.1 1368.9 4-2s1-16 7.5-15.6c6.5 1 9.5 9.5 8.9 12.6-0.4 3-2 8.1-8.5 7.5-8.5 0.2-12-2.5-11.9-2.5z"/>
	<path class="st89" d="m739.1 1301s4-1.4 8.9 3.4c4 0 21.4-2 26.9 1.4s7.1 6.5 7.1 6.5-20.4 4.5-31.6 0c-11.3-3.9-11.3-11.3-11.3-11.3z"/>
	<path class="st90" d="m829.1 1304c0-1-10.9-8.5-22.5-10.9-2-0.4-2.4 1-4 1-1-0.4-1.4-3.4-1.4-3.4l-6.6 3.4s-1 1.4 2.4 4c3 2.4 8.1 4.5 9.5 8.5s1.4 5.4 2 6.1c0.4 0.4 7.5 0 10.9-2 3.6-2.1 10.1-5.4 9.7-6.7z"/>
	<path class="st91" d="m726.9 1345.1s2-13.9 15.6-14.6c13.9-1 16.6 12.5 16.6 12.5l-8.1 8.1c0-0.2-6-8.7-24.1-6z"/>
	<path class="st92" d="m814.9 1285s-7.5 8.1-24.1 10.5c-1.4-2-4.5-6.1 0-12.5 4.5-6.5 9.5-8.5 14.6-6.5 4.6 0.7 8.3 4.1 9.5 8.5z"/>
	<path class="st90" d="m845.5 1294.9c0.4-2-1-2.4 0-3.4s6.5-3 7.5-2c0.4 0.4 0 2 0 4s0 4-1 5.4c-1.4 2-5.5 3-7.5 2.4s-2.4-3.4-2.4-4c0.9-0.4 3.4-1.4 3.4-2.4zm34.5-21.8c0-1 3.4-3 5.5-3 3 0 3 2.4 3.4 3 1 0.4 1-0.4 2 1.4s2.4 5.1 1.4 7.1-5 3.4-6 3c-1.4-1-5.9-10.1-6.3-11.5z"/>
	<path class="st85" d="m810.5 1299.6s4.4 1 10.5 6.1c-2 1.4-5.1 3-5.1 3s-0.4-4.7-5.4-9.1z"/>
	<path class="st65" d="m800.6 1255.1c-1-1 3-3.4 5.5-3 2.4 0.4 3.4 2 6.1 2.4 2.6 0.4 3-1 4-2s4.5-0.4 5.1 0c0.4 0.4 0.7 0.9 1 1.4 0.1-1.6 0.8-3 2-4 1.1-0.8 2.4-1.2 3.8-1.2 0.6 0 1.1 0.1 1.7 0.2 0.4 1.4 2.4 6.5 2 7.5s-6.5 2.4-7.5 1.4c1 2.4 5.5 7.5 6.1 8.5s-4.4 3.4-6.5 3c-2.9-0.2-20.3-10.4-23.3-14.2zm50.1-38.8c-0.4-1-1.1-1.9-2-2.4-1.4-0.4-6.1 0-6.1 2.4s4 16 8.5 23.1c5.1 7.1 8.5 12.9 11.9 14.6 0.6 0.3 1.3 0.4 1.9 0.4 1.7 0 3.3-0.9 4.1-2.4 0.4-1 1.4-8.5 1-26.1s-1-34.6-2-35.6-5-1-6.5 1c-1.3 1.9-10.4 21.9-10.8 25z"/>
	<path class="st92" d="m809.1 1325s-7.1-4.4-14-1.4c-6.5 3-6.1 15-6.1 15 1.1 0.4 2.3 0.7 3.5 0.7 1.9 0 3.8-0.6 5.4-1.7 4.5-3 10.1-8.1 11.2-12.6z"/>
	<path class="st90" d="m822.4 1341c-0.4-4-4-4-4-6.1 0.5-2 2.3-3.4 4.4-3.4 2 0 4 2.4 6.5 4 2.4 1.4 6.1 4 6.5 7.1s-4 11.5-8.9 11.5-3.4-9.1-4.5-13.1zm35-11.5s-8.1 2.4-7.5 0 2.4-3 5.1-3c1.3-1.4 3.1-2.3 5-2.4h0.2c1 0 2 0.4 2.8 1 0.8 0.7 5.5-2.4 7.1-1s0.4 1.4 1.4 3c1.3 1.8 2.1 3.9 2.4 6.1 0 1.6-6.1 5.1-10.9 4.4-5.6-1.2-4.6-7.1-5.6-8.1zm61.3-11.5s2.4 1.4 0.4 3c-1.4 1.4-8.5 4-14.6 4.4-6.1 0-11.5 1-11.5-1s5-6.1 8.1-7.1c1.2-1.5 3.1-2.4 5-2.4 2.4 0 11.9-1 14.6-1.4 2.4-0.4 4.4 1 3 3-0.5 1.5-5 1.5-5 1.5zm3.8-54s-3 6.5-6.5 6.5c-3.4-0.4-3.4-1.4-3.4-2.4 0-1.4 3.4-5.1 3-6.1-1 0-3.4 0-3-2.4 0-2 3.4-4.5 6.5-4 2.3-1.9 5.1-2.9 8.1-3 3.4 0 6.5 1 6.5 3s-4 6.5-5.5 7.5c-1.6 1.5-3.7 2.6-5.7 0.9zm-49.5 111.1s-4 0.4-4 2.4c0 1 1 1 2.4 0.4 0.8-0.1 1.6-0.2 2.4-0.4 0.4 0.4 0.4 2.4 3.4 2.4 2.5-0.3 4.9-1.2 7.1-2.4 2.4-1 4.5-2 4.5-4-1-3.4-3-5.1-6.1-5.1h-0.5c-1.4 0-2.7 0.4-3.9 1-1.2 0.7-1-2-4.5 0s-3 2-2 3c1.8 1.7 1.2 2.8 1.2 2.7zm-13.1 14.4c0-1 5.1-3 6.5-2.4 1.4 0.4 5.5 8.1 5.5 8.9 0 1-5 3.4-7.1 3.4s-5.5-3.4-5.5-4c0-0.4 2.4-1 2.4-1.4 0.6-1-1.8-3.5-1.8-4.5zm-16-29.6c1-0.4 1-1.4 2.4-2.4 0.6-0.4 1.2-0.6 1.9-0.6 0.4 0 0.8 0.1 1.1 0.2 0.7-1.3 2-2.2 3.4-2.4 2.4-0.4 4.5 0 4 1 0 3 2 5.1 2 7.5s-1.4 5.5-6.5 7.5c-5 1.4-11.9 1.4-13 1s-2-4.4-1-6.5c1.2-2 4-4.2 5.7-5.3z"/>
	<path class="st85" d="m844 1376.4s-3.4 2-3.4 3c-0.3 0.9-0.4 1.8-0.4 2.7v0.3c0 0.6 4.5-0.4 5-1 0.2-0.3-1.2-3.9-1.2-5z"/>
	<path class="st65" d="m813.9 1366.9c2 0.4 5.5 0 8.1 1 2 1 3.4 3 1.4 5.5-2 2.4-4 6.1-8.5 5.4-5-0.4-9.9-3-9.9-5.1v-0.6c0-2.4 0.9-4.7 2.4-6.4 2.1-1.6 3.1-0.6 6.5 0.2z"/>
	<path class="st92" d="m811.5 1368.9s-6.5 5.1-8.1 7.5c-2 2.4-11.9 15-15 17.6 1-1.8 2.2-3.5 3.4-5.1-4 2.6-7 6.4-8.5 10.9-2.4 7.5 13.6 11.5 24.1 14.6 10.5 3 14.6 4 14.6 4-3.9-5.8-7.2-12-9.9-18.4-4-9.5-6.1-10.5-3.4-15 2-4.5 5.1-7.5 5.1-10.9-1.3-3.1-2.3-5.2-2.3-5.2z"/>
	<path class="st66" d="m580.9 1384.9c0.7 0.1 1.5 0.2 2.2 0.2 0.8 0 1.5-0.1 2.2-0.2 3-0.4 34.6-12 67.6-9.9 24.6 1.5 49.2 5.6 73 12 41.5 10.9 93 32.6 126.4 44.9 8.9 3.4 17.6 9.5 24 11.9 25.5 9.9 26.5 9.9 41.5 12.6 17.6 2.4 35.6-3.4 54.4-7.5 23-5.1 62.5-7.5 97.1-12.6 11.2-1.6 22.2-4.1 32.9-7.5s-27.5 27.5-93.5 37.4c-14.5 2.2-29.2 3.3-43.9 3.3-12.2 0-24.5-0.8-36.6-2.3-21-2-35-5.1-45.5-8.1-11.9-3.4-36.4-12.5-66.5-20-21-5.5-44.5-9.5-71.4-14.6-66.3-12-138.3-25.9-163.9-39.6z"/>
	<line class="st0" x1="546.5" x2="378" y1="1128.4" y2="971.1"/>
	<path class="st4" d="m506.5 1259.9c-16 13.6-33 26.5-49.5 39l-50 38.4c-17 12.5-33.6 25.5-50.6 38s-34 24.5-52 36c16-13.6 33-26.1 50-38.4s34.6-24.4 51-36.9l50-38.4c17.1-12.6 33.7-25.5 51.1-37.7zm-88.4 141.6s18-15 40.4-36c27.9-26.1 62.1-59.5 73-65.5l-113.4 101.5z"/>
	<path class="st4" d="m418.1 1401.5c8.9-8.9 18.4-17.6 27.9-26.1l14.6-12.5c4.4-4 9.5-8.5 14-12.9 8.9-8.9 17.6-18.4 26.5-27.5 4.4-4.6 9.1-8.9 14-12.9 2.4-2.2 5.2-4 8.1-5.5 2.4-1.4 5.1-4 8.5-4.5-2 3-4.4 4.5-6.5 7.1-2.4 2-4.5 4.5-6.5 6.5-4.5 4.4-9.5 8.5-14 12.6-9.5 8.1-19.4 16-28.9 24.5s-18.4 17.6-27.9 26.1c-10.4 8.5-19.9 17-29.8 25.1zm217.8-172.9s-65.9 64.5-79.5 75l79.5-75z"/>
	<path class="st4" d="m539 1320.6c-5.9 6.9-12.3 13.4-19 19.4l-20 19c-6.5 6.5-12.5 12.9-19.4 19.4-7.1 6.1-13.5 12-21 17.6l19.4-19c6.5-6.5 13.6-11.9 20.4-18.4l19.4-19c6.7-6.7 13.2-13.2 20.2-19zm3.1 35c-6.1 16.9-13.3 33.6-21.5 49.6-17 34-42.5 76.5-53.6 98.1l75.1-147.7z"/>
	<path class="st4" d="m542.1 1355.6c0 7.5-2 14-4.5 20.4-2.4 6.4-5.1 12.9-8.1 19s-6.5 12.5-9.9 18.4-7.5 11.9-10.5 18l-20.4 36c-7.1 12-14 24.1-21.4 35.6 5.1-12.9 11.9-25.1 18.4-37 7.1-12 13.5-24 20-36.4 3.1-6.2 6-12.5 8.5-19 3-6.5 6-12.6 8.5-18.4 3-6.5 5.5-12.6 8.5-18.4 3.4-6.3 6.2-12.4 10.9-18.2z"/>
	<path class="st93" d="m614.1 1521.4s-20 26.5-18 60.1c5.4-17.6 12.3-44.5 18-60.1zm19 26.6s-7.1 72-12.9 107.4c8.2-40.9 9.9-37.5 12.9-107.4zm132.5 111.7s-29.9 88-30.5 112.5c6.4-25.2 18.9-76.6 30.5-112.5z"/>
	<path class="st94" d="m835.6 1516s48.5 80.1 85 148.4c-9.9-34.4-32.6-97.4-85-148.4z"/>
	<path class="st95" d="m966 1633.9c26.6 47 50.8 95.9 72.1 145.5-4.1-34.4-15-93.3-72.1-145.5z"/>
	<path class="st96" d="m1349.5 1752c8.1-5.1 24.1-32.6 38-39.4 13.9-7.1 24.5-8.5 37-22.4 12.5-14.6 16-23.5 43.5-35 38.4-16.6 12-38 12-38 4.2-4.2 8.8-8 13.5-11.5 9.9-7.5 21.4-16.6 20.4-32.6-1.4-26.9-6.5-65.9-28.5-88.6 21.4-4.4 62.5-7.5 88-13.9 29.5-7.5 43.1-18 43.1-18s-17-28.9 10.5-58 50-46.5 66.5-79.1c-19-2.4-48-12.5-122 15.6 4 1.9 7.9 4.1 11.6 6.5s-45.5 12.5-62.1 26.5c-28.9 24.5-32.6 44.5-63.9 59.5s-62.9 10.9-89 23.1c-26.1 12.1-29.9 22.4-39.5 26.9 2 2.4-0.4 6.5 3.4 9.9-2.4 3.4-16.6 26.5-30.9 26.5 1.4 5.5 13.5 9.5 13.5 9.5s-8.9 6.5-31.5 8.1c11.5 12 22.4 25.1 52.6 44.1-2.4 5.1-12.5 12.6-8.5 22.1 4.4 9.5 16 22.5 62.1 33-23.5 1-51 6.5-88 1.4-37-4.4-43.1-7.1-65.9-1.4 2.4 2.4 8.9 2.4 14.6 8.9-6.1 0.4-44.1-4.4-57 12.6-13.6 17.6-19.4 46.5-18.4 65.9-7.1 3.4-14 9.5-10.5 22.1 3.4 12.5 21.4 16.6 33 24.5 11.5 8.5 12.5 11.5 23.5 9.5 11.5-2.4 28.5-13.9 38.4-13.9s17 7.5 17 7.5 26.9-12.9 29.5-10.5c2.4 2.4 0.4 18 3 20.4 2.7 1.3 33-16.7 41-21.8z"/>

</svg>
