<svg width="43" height="37" viewBox="0 0 43 37" fill="none" xmlns="http://www.w3.org/2000/svg">
<path d="M7.76901 36.7022C8.15682 37.0954 8.78997 37.0998 9.18319 36.712C9.5764 36.3242 9.58077 35.691 9.19295 35.2978L7.76901 36.7022ZM1.84737 29.2742L1.1354 29.9764H1.1354L1.84737 29.2742ZM1.84737 25.1258L2.55934 25.828H2.55934L1.84737 25.1258ZM9.19295 19.1022C9.58077 18.709 9.5764 18.0759 9.18319 17.688C8.78998 17.3002 8.15683 17.3046 7.76901 17.6978L9.19295 19.1022ZM2.69475 26.2C2.14246 26.2 1.69475 26.6477 1.69475 27.2C1.69475 27.7523 2.14246 28.2 2.69475 28.2L2.69475 26.2ZM37.4121 28.2C37.9644 28.2 38.4121 27.7523 38.4121 27.2C38.4121 26.6477 37.9644 26.2 37.4121 26.2L37.4121 28.2ZM33.807 17.8978C33.4192 18.291 33.4236 18.9242 33.8168 19.312C34.21 19.6998 34.8432 19.6954 35.231 19.3022L33.807 17.8978ZM41.1526 11.8742L41.8646 12.5764L41.1526 11.8742ZM41.1526 7.72583L41.8646 7.02362V7.02362L41.1526 7.72583ZM35.231 0.297798C34.8432 -0.0954121 34.21 -0.0997825 33.8168 0.288037C33.4236 0.675856 33.4192 1.30901 33.807 1.70222L35.231 0.297798ZM40.3052 10.8C40.8575 10.8 41.3052 10.3523 41.3052 9.80001C41.3052 9.24772 40.8575 8.80001 40.3052 8.80001L40.3052 10.8ZM5.58786 8.8C5.03558 8.8 4.58786 9.24772 4.58786 9.8C4.58786 10.3523 5.03558 10.8 5.58786 10.8L5.58786 8.8ZM9.19295 35.2978L2.55935 28.572L1.1354 29.9764L7.76901 36.7022L9.19295 35.2978ZM2.55934 25.828L9.19295 19.1022L7.76901 17.6978L1.1354 24.4236L2.55934 25.828ZM2.55935 28.572C1.81355 27.8158 1.81355 26.5842 2.55934 25.828L1.1354 24.4236C-0.378469 25.9585 -0.378466 28.4415 1.1354 29.9764L2.55935 28.572ZM2.69475 28.2L37.4121 28.2L37.4121 26.2L2.69475 26.2L2.69475 28.2ZM35.231 19.3022L41.8646 12.5764L40.4406 11.172L33.807 17.8978L35.231 19.3022ZM41.8646 7.02362L35.231 0.297798L33.807 1.70222L40.4406 8.42804L41.8646 7.02362ZM41.8646 12.5764C43.3785 11.0415 43.3785 8.55854 41.8646 7.02362L40.4406 8.42804C41.1864 9.18419 41.1864 10.4158 40.4406 11.172L41.8646 12.5764ZM40.3052 8.80001L5.58786 8.8L5.58786 10.8L40.3052 10.8L40.3052 8.80001Z" fill="#A6A7A9"/>
</svg>
