<svg width="30" height="32" viewBox="0 0 30 32" fill="none" xmlns="http://www.w3.org/2000/svg">
<path fill-rule="evenodd" clip-rule="evenodd" d="M9.42419 12.3418L0.831628 7.61668L14.684 0L19.2237 2.47694L16.154 4.21311L14.9512 3.55132L7.64512 7.58128L9.64744 8.68289L16.9088 4.73396H16.9102L20.1321 2.9726L28.6451 7.61736L14.684 15.234L10.4002 12.8783L13.8174 10.9426L14.843 11.5098L22.2 7.50843L20.146 6.37821L12.8972 10.3762H12.8958L9.42419 12.3418ZM0 8.81838L14.0351 16.5637V22.1229L12.8114 22.767L14.0351 23.7998V31.8659L0 24.1981V8.81838ZM3.28326 14.2911V16.4943L10.5991 20.5644V18.304L3.28326 14.2911ZM3.28326 20.0463V22.2495L10.5991 26.3203V24.0599L3.28326 20.0463ZM29.924 20.8225V23.966L15.8114 31.7038V16.367L29.924 8.6863V10.6097L29.9484 10.5872V14.3946L26.6749 16.194V14.0051L19.2481 18.1154V26.0405L26.6749 21.9745V19.9898L29.9484 18.1903V20.7993L29.924 20.8218V20.8225Z" fill="#BF9F86"/>
</svg>
